<?xml version="1.0" standalone="no"?>
<!DOCTYPE svg PUBLIC "-//W3C//DTD SVG 20010904//EN"
 "http://www.w3.org/TR/2001/REC-SVG-20010904/DTD/svg10.dtd">
<svg version="1.0" xmlns="http://www.w3.org/2000/svg"
 width="183.000000pt" height="183.000000pt" viewBox="0 0 183.000000 183.000000"
 preserveAspectRatio="xMidYMid meet">
<metadata>
Created by potrace 1.11, written by Peter Selinger 2001-2013
</metadata>
<g transform="translate(0.000000,183.000000) scale(0.100000,-0.100000)"
fill="#000000" stroke="none">
<path d="M130 1090 c0 -157 4 -250 10 -250 6 0 11 90 12 236 l3 236 139 -206
c76 -113 142 -206 146 -206 3 0 68 92 144 205 76 113 139 205 141 205 1 0 3
-42 3 -92 0 -303 3 -378 12 -378 6 0 10 90 10 250 0 235 -1 250 -18 250 -12 0
-60 -63 -152 -200 -73 -110 -135 -200 -138 -200 -7 0 -21 20 -154 218 -83 123
-128 182 -140 182 -17 0 -18 -16 -18 -250z"/>
<path d="M1500 1331 c-44 -14 -85 -39 -118 -72 -119 -122 -78 -316 84 -395 48
-23 63 -26 123 -22 46 4 83 13 112 29 l44 24 3 98 c2 60 -1 97 -7 97 -6 0 -11
-39 -13 -92 l-3 -92 -33 -19 c-21 -12 -60 -22 -102 -25 -57 -4 -76 -1 -115 18
-94 46 -146 129 -141 227 9 165 194 263 355 188 58 -27 79 -27 37 0 -61 40
-160 56 -226 36z"/>
<path d="M890 955 c0 -163 4 -255 10 -255 6 0 10 45 10 116 l0 116 25 -30 c37
-44 80 -61 150 -59 51 2 68 7 99 31 85 64 99 201 29 278 -73 81 -226 74 -288
-15 -14 -20 -15 -19 -15 26 0 26 -4 47 -10 47 -6 0 -10 -92 -10 -255z m253
221 c125 -53 126 -250 0 -302 -112 -47 -233 31 -233 152 0 119 121 198 233
150z"/>
<path d="M330 724 c0 -21 96 -304 103 -304 4 0 6 3 4 8 -3 4 -26 73 -51 155
-41 127 -56 166 -56 141z"/>
<path d="M810 648 c0 -49 -1 -50 -18 -35 -22 20 -70 22 -94 3 -41 -31 -41
-111 -1 -142 25 -19 73 -17 95 3 17 15 18 15 18 0 0 -10 6 -17 13 -17 10 0 13
28 13 120 -1 89 -4 120 -13 120 -9 0 -13 -17 -13 -52z m-12 -65 c30 -40 1 -96
-49 -96 -56 0 -79 63 -38 102 24 22 67 19 87 -6z"/>
<path d="M1351 579 c1 -68 3 -116 6 -106 4 15 6 16 26 2 22 -16 64 -20 92 -9
21 8 45 56 45 89 0 58 -86 96 -137 60 -21 -15 -21 -14 -21 31 0 25 -3 48 -6
52 -3 3 -5 -51 -5 -119z m136 15 c20 -20 24 -31 19 -57 -18 -92 -140 -85 -140
8 0 70 71 99 121 49z"/>
<path d="M511 648 c-40 -88 -81 -181 -81 -184 0 -2 7 -4 15 -4 9 0 20 11 25
25 5 14 13 25 17 26 5 1 32 2 61 3 49 1 55 -1 68 -26 8 -15 21 -28 29 -28 10
0 0 31 -35 112 -28 62 -50 113 -50 115 0 2 -7 3 -15 3 -8 0 -24 -19 -34 -42z
m78 -100 c1 -5 -20 -8 -45 -8 -50 0 -51 1 -17 80 l15 35 24 -50 c12 -27 23
-53 23 -57z"/>
<path d="M1596 618 c-10 -35 -20 -72 -23 -83 -3 -13 -2 -16 4 -10 12 12 47
144 41 151 -3 2 -13 -24 -22 -58z"/>
<path d="M870 627 c0 -3 6 -20 13 -38 8 -19 22 -55 31 -81 10 -27 21 -48 25
-48 4 0 18 32 31 70 13 39 28 70 32 70 4 0 11 -12 14 -27 13 -52 45 -116 53
-107 12 14 62 156 57 162 -3 3 -8 -1 -11 -9 -2 -8 -15 -43 -28 -77 l-24 -64
-27 76 c-16 42 -32 76 -36 76 -5 0 -18 -28 -29 -62 -32 -95 -35 -96 -60 -18
-12 38 -26 72 -31 75 -6 4 -10 4 -10 2z"/>
<path d="M1179 617 c-46 -35 -48 -112 -4 -141 31 -20 76 -20 101 0 19 15 19
16 -1 8 -51 -18 -74 -16 -99 9 -40 40 -33 47 49 47 72 0 75 1 75 23 0 51 -79
86 -121 54z m91 -19 c36 -39 27 -48 -49 -48 -65 0 -69 1 -64 20 13 48 79 65
113 28z"/>
<path d="M1550 470 c0 -5 5 -10 10 -10 6 0 10 5 10 10 0 6 -4 10 -10 10 -5 0
-10 -4 -10 -10z"/>
<path d="M213 403 c26 -2 67 -2 90 0 23 2 2 3 -48 3 -50 0 -68 -1 -42 -3z"/>
</g>
</svg>
